<svg xmlns="http://www.w3.org/2000/svg" viewBox="0 0 64 64" width="64" height="64">
  <rect width="64" height="64" rx="14" fill="#09090b"/>
  <path d="M32 8 L52 16 V32 C52 44 43 53 32 57 C21 53 12 44 12 32 V16 Z" fill="none" stroke="#f97316" stroke-width="3.5" stroke-linejoin="round"/>
  <path d="M32 20 C36 26 40 29 40 36 C40 41 36.5 45 32 45 C27.5 45 24 41 24 36 C24 33 25 31 26.5 29 C26.5 32 28 34 30 34 C29 29 30 24 32 20 Z" fill="#f97316"/>
  <path d="M32 33 C33.5 35.5 35 37 35 39.5 C35 41.5 33.6 43 32 43 C30.4 43 29 41.5 29 39.5 C29 37.5 30.5 36 32 33 Z" fill="#fde68a"/>
</svg>
